<svg width="487" height="486" viewBox="0 0 487 486" fill="none" xmlns="http://www.w3.org/2000/svg">
<path d="M212.073 233.346C211.186 232.349 211.23 230.834 212.174 229.89L230.069 211.995C231.013 211.051 232.528 211.007 233.526 211.893L343.41 309.596C344.494 310.56 344.543 312.236 343.518 313.261L313.441 343.339C312.416 344.364 310.739 344.315 309.776 343.231L212.073 233.346Z" fill="#1A1A1D"/>
<path d="M222.504 201.01C223.46 201.999 223.448 203.572 222.475 204.545L204.724 222.295C203.752 223.268 202.179 223.281 201.19 222.324L48.4284 74.5077C47.7234 73.8256 47.4788 72.798 47.8333 71.8833C49.1165 68.5721 52.4789 60.6226 56.6405 56.461C60.8022 52.2994 68.7516 48.937 72.0628 47.6537C72.9775 47.2993 74.0051 47.5439 74.6873 48.2489L222.504 201.01Z" fill="#1A1A1D"/>
<path d="M337.515 371.193C328.166 361.843 328.166 346.685 337.515 337.336C346.865 327.987 362.022 327.987 371.372 337.336C380.721 346.685 380.721 361.843 371.372 371.193C362.022 380.542 346.865 380.542 337.515 371.193Z" fill="#1A1A1D"/>
<path d="M324.151 357.828C322.183 355.86 322.183 352.669 324.151 350.701L350.88 323.972C352.848 322.004 356.039 322.004 358.007 323.972L367.905 333.87C369.874 335.838 369.874 339.029 367.905 340.998L341.177 367.726C339.209 369.695 336.017 369.695 334.049 367.726L324.151 357.828Z" fill="#1A1A1D"/>
<path d="M486.526 485.417L371.804 385.21L386.319 370.696L486.526 485.417Z" fill="#1A1A1D"/>
<path d="M123.177 0.338176C144.855 -7.71962 177.798 130.881 176.727 132.008C175.656 133.135 173.912 134.823 173.912 134.823L81.3023 42.2131C81.3023 42.2131 101.499 8.39597 123.177 0.338176Z" fill="#1A1A1D"/>
<path d="M0.338176 123.177C-7.71962 144.855 130.881 177.798 132.008 176.727C133.135 175.656 134.823 173.912 134.823 173.912L42.2131 81.3022C42.2131 81.3022 8.39597 101.499 0.338176 123.177Z" fill="#1A1A1D"/>
</svg>
