<svg width="512" height="512" viewBox="0 0 512 512" fill="none" xmlns="http://www.w3.org/2000/svg">
<circle cx="256" cy="256" r="256" fill="#242132"/>
<path id="S20L" data-score="20" data-multiplier="1" d="M256 56C245.185 56 234.57 56.8584 224.221 58.5109L235.799 131.611C242.376 130.551 249.124 130 256 130C262.537 130 268.957 130.498 275.226 131.457L286.803 58.3575C276.763 56.8054 266.475 56 256 56Z" fill="#323232"/>
<path id="S20S" data-score="20" data-multiplier="1" d="M256.5 144C250.199 144 244.019 144.518 238.001 145.514L255.5 256L273.048 145.208C267.647 144.412 262.122 144 256.5 144Z" fill="#323232"/>
<path id="S18L" data-score="18" data-multiplier="1" d="M255.5 256L335.296 176.204C326.902 167.966 317.223 161.034 306.587 155.737L255.5 256Z" fill="#323232"/>
<path id="S18S" data-score="18" data-multiplier="1" d="M397.171 114.329C382.36 99.5698 365.248 87.1181 346.42 77.5587L312.818 143.507C324.698 149.52 335.497 157.359 344.845 166.655L397.171 114.329Z" fill="#323232"/>
<path id="S13L" data-score="13" data-multiplier="1" d="M380.455 236.209L453.554 224.631C450.219 203.461 443.563 183.394 434.136 164.98L368.187 198.583C374.143 210.196 378.348 222.854 380.455 236.209Z" fill="#323232"/>
<path id="S13S" data-score="13" data-multiplier="1" d="M367.528 238.256C365.579 226.305 361.748 214.987 356.347 204.616L255.5 256L367.528 238.256Z" fill="#323232"/>
<path id="S10L" data-score="10" data-multiplier="1" d="M356.756 307.592C362.086 297.155 365.833 285.774 367.683 273.768L255.5 256L356.756 307.592Z" fill="#323232"/>
<path id="S10S" data-score="10" data-multiplier="1" d="M434.136 347.02C443.563 328.606 450.219 308.539 453.554 287.369L380.455 275.791C378.348 289.146 374.143 301.804 368.187 313.417L434.136 347.02Z" fill="#323232"/>
<path id="S2L" data-score="2" data-multiplier="1" d="M306.993 357.06C317.682 351.682 327.396 344.65 335.799 336.299L255.5 256L306.993 357.06Z" fill="#323232"/>
<path id="S3L" data-score="3" data-multiplier="1" d="M237.846 367.461C243.914 368.473 250.145 369 256.5 369C262.175 369 267.753 368.58 273.202 367.769L255.5 256L237.846 367.461Z" fill="#323232"/>
<path id="S3S" data-score="3" data-multiplier="1" d="M224.221 453.489C234.57 455.142 245.185 456 256 456C266.475 456 276.763 455.195 286.803 453.642L275.226 380.543C268.957 381.502 262.537 382 256 382C249.124 382 242.376 381.449 235.799 380.389L224.221 453.489Z" fill="#323232"/>
<path id="S3S" data-score="7" data-multiplier="1" d="M166.655 344.845L114.329 397.171C129.047 411.941 146.059 424.422 164.786 434.036L198.389 368.087C186.609 362.021 175.91 354.152 166.655 344.845Z" fill="#323232"/>
<path id="S7L" data-score="7" data-multiplier="1" d="M176.204 335.296C184.42 343.667 193.935 350.76 204.422 356.246L255.5 256L176.204 335.296Z" fill="#323232"/>
<path id="S8L" data-score="8" data-multiplier="1" d="M255.5 256L145.27 273.459C147.055 285.269 150.677 296.477 155.835 306.782L255.5 256Z" fill="#323232"/>
<path id="S8S" data-score="8" data-multiplier="1" d="M58.4215 287.214C61.724 308.287 68.3168 328.268 77.6577 346.615L143.606 313.013C137.737 301.466 133.596 288.894 131.521 275.636L58.4215 287.214Z" fill="#323232"/>
<path id="S14S" data-score="14" data-multiplier="1" d="M143.606 198.987L77.6577 165.385C68.3168 183.732 61.724 203.713 58.4215 224.786L131.521 236.364C133.596 223.106 137.737 210.534 143.606 198.987Z" fill="#323232"/>
<path id="S14L" data-score="14" data-multiplier="1" d="M156.237 205.423C151.009 215.663 147.305 226.81 145.422 238.565L255.5 256L156.237 205.423Z" fill="#323232"/>
<path id="S12L" data-score="12" data-multiplier="1" d="M255.5 256L204.825 156.544C194.389 161.95 184.908 168.942 176.701 177.201L255.5 256Z" fill="#323232"/>
<path id="S12S" data-score="12" data-multiplier="1" d="M164.786 77.9638C146.059 87.5776 129.047 100.059 114.329 114.829L166.655 167.155C175.91 157.848 186.609 149.979 198.389 143.913L164.786 77.9638Z" fill="#323232"/>
<path id="S17L" data-score="17" data-multiplier="1" d="M306.993 357.06L255.5 256L273.202 367.769C285.187 365.985 296.555 362.311 306.993 357.06Z" fill="white"/>
<path id="S17S" data-score="17" data-multiplier="1" d="M346.42 434.441L312.818 368.493C301.205 374.369 288.56 378.501 275.226 380.543L286.803 453.642C307.952 450.373 328.007 443.79 346.42 434.441Z" fill="white"/>
<path id="S15S" data-score="15" data-multiplier="1" d="M434.136 347.02L368.187 313.417C362.107 325.273 354.203 336.039 344.845 345.345L397.171 397.671C411.992 382.902 424.509 365.823 434.136 347.02Z" fill="white"/>
<path id="S6L" data-score="6" data-multiplier="1" d="M367.528 238.256L255.5 256L367.683 273.768C368.55 268.139 369 262.372 369 256.5C369 250.288 368.497 244.194 367.528 238.256Z" fill="white"/>
<path id="S15L" data-score="15" data-multiplier="1" d="M356.756 307.592L255.5 256L335.799 336.299C344.212 327.939 351.31 318.258 356.756 307.592Z" fill="white"/>
<path id="S6S" data-score="6" data-multiplier="1" d="M453.554 224.631L380.455 236.209C381.472 242.657 382 249.267 382 256C382 262.733 381.472 269.343 380.455 275.791L453.554 287.369C455.164 277.149 456 266.672 456 256C456 245.328 455.164 234.851 453.554 224.631Z" fill="white"/>
<path id="S4S" data-score="4" data-multiplier="1" d="M397.171 114.329L344.845 166.655C354.203 175.961 362.107 186.727 368.187 198.583L434.136 164.98C424.509 146.177 411.992 129.098 397.171 114.329Z" fill="white"/>
<path id="S4L" data-score="4" data-multiplier="1" d="M335.296 176.204L255.5 256L356.347 204.616C350.847 194.052 343.719 184.47 335.296 176.204Z" fill="white"/>
<path id="S1S" data-score="1" data-multiplier="1" d="M286.803 58.3575L275.226 131.457C288.56 133.499 301.205 137.631 312.818 143.507L346.42 77.5587C328.007 68.2096 307.952 61.6269 286.803 58.3575Z" fill="white"/>
<path id="S1L" data-score="1" data-multiplier="1" d="M273.048 145.208L255.5 256L306.587 155.737C296.215 150.572 284.934 146.961 273.048 145.208Z" fill="white"/>
<path id="S5L" data-score="5" data-multiplier="1" d="M255.5 256L238.001 145.514C226.224 147.462 215.065 151.239 204.825 156.544L255.5 256Z" fill="white"/>
<path id="S5S" data-score="5" data-multiplier="1" d="M235.799 131.611L224.221 58.5109C203.127 61.8787 183.134 68.5448 164.786 77.9638L198.389 143.913C209.935 137.966 222.52 133.751 235.799 131.611Z" fill="white"/>
<path id="S9S" data-score="9" data-multiplier="1" d="M77.6577 165.385L143.606 198.987C149.606 187.184 157.41 176.452 166.655 167.155L114.329 114.829C99.6207 129.589 87.204 146.634 77.6577 165.385Z" fill="white"/>
<path id="S9L" data-score="9" data-multiplier="1" d="M156.237 205.423L255.5 256L176.701 177.201C168.503 185.45 161.576 194.963 156.237 205.423Z" fill="white"/>
<path id="S11S" data-score="11" data-multiplier="1" d="M58.4215 287.214L131.521 275.636C130.52 269.238 130 262.68 130 256C130 249.32 130.52 242.762 131.521 236.364L58.4215 224.786C56.8275 234.957 56 245.382 56 256C56 266.618 56.8275 277.043 58.4215 287.214Z" fill="white"/>
<path id="S11L" data-score="11" data-multiplier="1" d="M145.27 273.459L255.5 256L145.422 238.565C144.486 244.406 144 250.396 144 256.5C144 262.264 144.434 267.928 145.27 273.459Z" fill="white"/>
<path id="S16L" data-score="16" data-multiplier="1" d="M176.204 335.296L255.5 256L155.835 306.782C161.119 317.342 168.017 326.954 176.204 335.296Z" fill="white"/>
<path id="S16S" data-score="16" data-multiplier="1" d="M114.329 397.171L166.655 344.845C157.41 335.548 149.606 324.816 143.606 313.013L77.6577 346.615C87.204 365.366 99.6207 382.411 114.329 397.171Z" fill="white"/>
<path id="T19" data-score="19" data-multiplier="3" d="M235.799 380.389L237.846 367.461C225.972 365.479 214.728 361.638 204.422 356.246L198.389 368.087C209.935 374.034 222.52 378.249 235.799 380.389Z" fill="#50CE3F"/>
<path id="T17" data-score="17" data-multiplier="3" d="M312.818 368.493L306.993 357.06C296.555 362.311 285.187 365.985 273.202 367.769L275.226 380.543C288.56 378.501 301.205 374.369 312.818 368.493Z" fill="#50CE3F"/>
<path id="T15" data-score="15" data-multiplier="3" d="M368.187 313.417L356.756 307.592C351.31 318.258 344.212 327.939 335.799 336.299L344.845 345.345C354.203 336.039 362.107 325.273 368.187 313.417Z" fill="#50CE3F"/>
<path id="T6" data-score="6" data-multiplier="3" d="M382 256C382 249.267 381.472 242.657 380.455 236.209L367.528 238.256C368.497 244.194 369 250.288 369 256.5C369 262.372 368.55 268.139 367.683 273.768L380.455 275.791C381.472 269.343 382 262.733 382 256Z" fill="#50CE3F"/>
<path id="T18" data-score="18" data-multiplier="3" d="M306.587 155.737C317.223 161.034 326.902 167.966 335.296 176.204L344.845 166.655C335.497 157.359 324.698 149.52 312.818 143.507L306.587 155.737Z" fill="#FF4141"/>
<path id="T20" data-score="20" data-multiplier="3" d="M238.001 145.514C244.019 144.518 250.199 144 256.5 144C262.122 144 267.647 144.412 273.048 145.208L275.226 131.457C268.957 130.498 262.537 130 256 130C249.124 130 242.376 130.551 235.799 131.611L238.001 145.514Z" fill="#FF4141"/>
<path id="T12" data-score="12" data-multiplier="3" d="M176.701 177.201C184.908 168.942 194.389 161.95 204.825 156.544L198.389 143.913C186.609 149.979 175.91 157.848 166.655 167.155L176.701 177.201Z" fill="#FF4141"/>
<path id="T14" data-score="14" data-multiplier="3" d="M143.606 198.987C137.737 210.534 133.596 223.106 131.521 236.364L145.422 238.565C147.305 226.81 151.009 215.663 156.237 205.423L143.606 198.987Z" fill="#FF4141"/>
<path id="T8" data-score="8" data-multiplier="3" d="M155.835 306.782C150.677 296.477 147.055 285.269 145.27 273.459L131.521 275.636C133.596 288.894 137.737 301.466 143.606 313.013L155.835 306.782Z" fill="#FF4141"/>
<path id="T7" data-score="7" data-multiplier="3" d="M166.655 344.845C175.91 354.152 186.609 362.021 198.389 368.087L204.422 356.246C193.935 350.76 184.42 343.667 176.204 335.296L166.655 344.845Z" fill="#FF4141"/>
<path id="T3" data-score="3" data-multiplier="3" d="M256.5 369C250.145 369 243.914 368.473 237.846 367.461L235.799 380.389C242.376 381.449 249.124 382 256 382C262.537 382 268.957 381.502 275.226 380.543L273.202 367.769C267.753 368.58 262.175 369 256.5 369Z" fill="#FF4141"/>
<path id="T2" data-score="2" data-multiplier="3" d="M312.818 368.493C324.698 362.48 335.497 354.641 344.845 345.345L335.799 336.299C327.396 344.65 317.682 351.682 306.993 357.06L312.818 368.493Z" fill="#FF4141"/>
<path id="T10" data-score="10" data-multiplier="3" d="M367.683 273.768C365.833 285.774 362.086 297.155 356.756 307.592L368.187 313.417C374.143 301.804 378.348 289.146 380.455 275.791L367.683 273.768Z" fill="#FF4141"/>
<path id="T13" data-score="13" data-multiplier="3" d="M380.455 236.209C378.348 222.854 374.143 210.196 368.187 198.583L356.347 204.616C361.748 214.987 365.579 226.305 367.528 238.256L380.455 236.209Z" fill="#FF4141"/>
<path id="T1" data-score="1" data-multiplier="3" d="M275.226 131.457L273.048 145.208C284.934 146.961 296.215 150.572 306.587 155.737L312.818 143.507C301.205 137.631 288.56 133.499 275.226 131.457Z" fill="#50CE3F"/>
<path id="T5" data-score="5" data-multiplier="3" d="M238.001 145.514L235.799 131.611C222.52 133.751 209.935 137.966 198.389 143.913L204.825 156.544C215.065 151.239 226.224 147.462 238.001 145.514Z" fill="#50CE3F"/>
<path id="T9" data-score="9" data-multiplier="3" d="M143.606 198.987L156.237 205.423C161.576 194.963 168.503 185.45 176.701 177.201L166.655 167.155C157.41 176.452 149.606 187.184 143.606 198.987Z" fill="#50CE3F"/>
<path id="T11" data-score="11" data-multiplier="3" d="M145.27 273.459C144.434 267.928 144 262.264 144 256.5C144 250.396 144.486 244.406 145.422 238.565L131.521 236.364C130.52 242.762 130 249.32 130 256C130 262.68 130.52 269.238 131.521 275.636L145.27 273.459Z" fill="#50CE3F"/>
<path id="T16" data-score="16" data-multiplier="3" d="M166.655 344.845L176.204 335.296C168.017 326.954 161.119 317.342 155.835 306.782L143.606 313.013C149.606 324.816 157.41 335.548 166.655 344.845Z" fill="#50CE3F"/>
<path id="T4" data-score="4" data-multiplier="3" d="M344.845 166.655L335.296 176.204C343.719 184.47 350.847 194.052 356.347 204.616L368.187 198.583C362.107 186.727 354.203 175.961 344.845 166.655Z" fill="#50CE3F"/>
<path id="D8" data-score="8" data-multiplier="2" d="M77.6577 346.615C68.3168 328.268 61.724 308.287 58.4215 287.214L38.6089 289.985C42.2074 313.191 49.4326 335.198 59.6871 355.408L77.6577 346.615Z" fill="#FF4141"/>
<path id="D16" data-score="16" data-multiplier="2" d="M114.329 397.171C99.6207 382.411 87.204 365.366 77.6577 346.615L59.6871 355.408C70.2115 376.151 83.9267 395.001 100.187 411.313L114.329 397.171Z" fill="#64C357"/>
<path id="D7" data-score="7" data-multiplier="2" d="M164.786 434.036C146.059 424.422 129.047 411.941 114.329 397.171L100.187 411.313C116.354 427.532 135.036 441.241 155.6 451.807L164.786 434.036Z" fill="#FF4141"/>
<path id="D19" data-score="19" data-multiplier="2" d="M224.221 453.489C203.127 450.121 183.134 443.455 164.786 434.036L155.6 451.807C175.8 462.185 197.814 469.529 221.042 473.238L224.221 453.489Z" fill="#64C357"/>
<path id="D3" data-score="3" data-multiplier="2" d="M256 456C245.185 456 234.57 455.142 224.221 453.489L221.042 473.238C232.427 475.056 244.103 476 256 476C267.391 476 278.58 475.134 289.504 473.465C289.532 473.461 289.56 473.457 289.587 473.452C289.719 473.432 289.851 473.412 289.983 473.391L286.803 453.642C276.763 455.195 266.475 456 256 456Z" fill="#FF4141"/>
<path id="D17" data-score="17" data-multiplier="2" fill-rule="evenodd" clip-rule="evenodd" d="M346.42 434.441C328.007 443.79 307.952 450.373 286.803 453.642L289.983 473.391C312.929 469.833 334.703 462.73 354.727 452.657C354.954 452.543 355.18 452.429 355.406 452.314L346.42 434.441Z" fill="#64C357"/>
<path id="D2" data-score="2" data-multiplier="2" d="M397.171 397.671C382.36 412.43 365.248 424.882 346.42 434.441L355.406 452.314C375.369 442.186 393.579 429.102 409.46 413.639C410.082 413.034 410.699 412.425 411.313 411.813L397.171 397.671Z" fill="#FF4141"/>
<path id="D11" data-score="11" data-multiplier="2" d="M58.4215 287.214C56.8275 277.043 56 266.618 56 256C56 245.382 56.8275 234.957 58.4215 224.786L38.6847 221.53C36.9175 232.761 36 244.273 36 256C36 267.558 36.8913 278.908 38.6089 289.985L58.4215 287.214Z" fill="#64C357"/>
<path id="D14" data-score="14" data-multiplier="2" d="M58.4215 224.786C61.724 203.713 68.3168 183.732 77.6577 165.385L59.8864 156.2C49.5979 176.377 42.3318 198.353 38.6847 221.53L58.4215 224.786Z" fill="#FF4141"/>
<path id="D9" data-score="9" data-multiplier="2" d="M77.6577 165.385C87.204 146.634 99.6207 129.589 114.329 114.829L100.187 100.687C84.0291 116.896 70.3844 135.612 59.8864 156.2L77.6577 165.385Z" fill="#64C357"/>
<path id="D12" data-score="12" data-multiplier="2" d="M114.329 114.829C129.047 100.059 146.059 87.5776 164.786 77.9638L155.6 60.1934C135.036 70.7586 116.354 84.468 100.187 100.687L114.329 114.829Z" fill="#FF4141"/>
<path id="D5" data-score="5" data-multiplier="2" d="M224.221 58.5109L221.152 38.7445C197.884 42.4475 175.832 49.7987 155.6 60.1934L164.786 77.9638C183.134 68.5448 203.127 61.8787 224.221 58.5109Z" fill="#64C357"/>
<path id="D20" data-score="20" data-multiplier="2" d="M224.221 58.5109C234.57 56.8584 245.185 56 256 56C266.475 56 276.763 56.8054 286.803 58.3575L290 38.6113C278.918 36.8921 267.563 36 256 36C244.142 36 232.502 36.9382 221.152 38.7445L224.221 58.5109Z" fill="#FF4141"/>
<path id="D6" data-score="6" data-multiplier="2" d="M453.554 224.631C455.164 234.851 456 245.328 456 256C456 266.672 455.164 277.149 453.554 287.369L473.315 290.471C475.082 279.24 476 267.727 476 256C476 244.273 475.082 232.76 473.315 221.529L453.554 224.631Z" fill="#64C357"/>
<path id="D10" data-score="10" data-multiplier="2" d="M453.554 287.369C450.219 308.539 443.563 328.606 434.136 347.02L452.109 355.809C462.4 335.63 469.667 313.651 473.315 290.471L453.554 287.369Z" fill="#FF4141"/>
<path id="D15" data-score="15" data-multiplier="2" d="M434.136 347.02C424.509 365.823 411.992 382.902 397.171 397.671L411.313 411.813C427.687 395.492 441.504 376.606 452.109 355.809L434.136 347.02Z" fill="#64C357"/>
<path id="D1" data-score="1" data-multiplier="2" d="M290 38.6113L286.803 58.3575C307.952 61.6269 328.007 68.2096 346.42 77.5587L355.406 59.6861C335.201 49.4344 313.2 42.2104 290 38.6113Z" fill="#64C357"/>
<path id="D18" data-score="18" data-multiplier="2" d="M346.42 77.5587C365.248 87.1181 382.36 99.5698 397.171 114.329L411.313 100.187C395.001 83.9261 376.15 70.2106 355.406 59.6861L346.42 77.5587Z" fill="#FF4141"/>
<path id="D4" data-score="4" data-multiplier="2" d="M434.136 164.98L452.311 156.587C442.155 136.573 429.029 118.32 413.512 102.409C412.784 101.663 412.051 100.922 411.313 100.187L397.171 114.329C411.992 129.098 424.509 146.177 434.136 164.98Z" fill="#64C357"/>
<path id="D13" data-score="13" data-multiplier="2" d="M434.136 164.98C443.563 183.394 450.219 203.461 453.554 224.631L473.315 221.529C469.691 198.5 462.495 176.658 452.311 156.587L434.136 164.98Z" fill="#FF4141"/>
<path id="S2S" data-score="2" data-multiplier="1" d="M346.42 434.441L312.818 368.493C324.698 362.48 335.497 354.641 344.845 345.345L397.171 397.671C382.36 412.43 365.248 424.882 346.42 434.441Z" fill="#323232"/>
<path id="S19L" data-score="19" data-multiplier="1" d="M255.5 256L237.846 367.461C225.972 365.479 214.728 361.638 204.422 356.246L255.5 256Z" fill="white"/>
<path id="S19S" data-score="19" data-multiplier="1" d="M235.799 380.389L224.221 453.489C203.127 450.121 183.134 443.455 164.786 434.036L198.389 368.087C209.935 374.034 222.52 378.249 235.799 380.389Z" fill="white"/>
<path d="M224.221 58.5109C234.57 56.8584 245.185 56 256 56C266.475 56 276.763 56.8054 286.803 58.3575M224.221 58.5109L235.799 131.611M224.221 58.5109C203.127 61.8787 183.134 68.5448 164.786 77.9638M224.221 58.5109L221.152 38.7445M235.799 131.611C242.376 130.551 249.124 130 256 130C262.537 130 268.957 130.498 275.226 131.457M235.799 131.611C222.52 133.751 209.935 137.966 198.389 143.913M235.799 131.611L238.001 145.514M275.226 131.457L286.803 58.3575M275.226 131.457C288.56 133.499 301.205 137.631 312.818 143.507M275.226 131.457L273.048 145.208M286.803 58.3575C307.952 61.6269 328.007 68.2096 346.42 77.5587M286.803 58.3575L290 38.6113M238.001 145.514C244.019 144.518 250.199 144 256.5 144C262.122 144 267.647 144.412 273.048 145.208M238.001 145.514L255.5 256M238.001 145.514C226.224 147.462 215.065 151.239 204.825 156.544M255.5 256L273.048 145.208M255.5 256L335.296 176.204M255.5 256L306.587 155.737M255.5 256L356.347 204.616M255.5 256L367.528 238.256M255.5 256L367.683 273.768M255.5 256L356.756 307.592M255.5 256L335.799 336.299M255.5 256L306.993 357.06M255.5 256L273.202 367.769M255.5 256L237.846 367.461M255.5 256L204.422 356.246M255.5 256L176.204 335.296M255.5 256L145.27 273.459M255.5 256L155.835 306.782M255.5 256L145.422 238.565M255.5 256L156.237 205.423M255.5 256L204.825 156.544M255.5 256L176.701 177.201M273.048 145.208C284.934 146.961 296.215 150.572 306.587 155.737M335.296 176.204C326.902 167.966 317.223 161.034 306.587 155.737M335.296 176.204C343.719 184.47 350.847 194.052 356.347 204.616M335.296 176.204L344.845 166.655M306.587 155.737L312.818 143.507M397.171 114.329C382.36 99.5698 365.248 87.1181 346.42 77.5587M397.171 114.329L344.845 166.655M397.171 114.329C411.992 129.098 424.509 146.177 434.136 164.98M397.171 114.329L411.313 100.187M346.42 77.5587L312.818 143.507M346.42 77.5587L355.406 59.6861M312.818 143.507C324.698 149.52 335.497 157.359 344.845 166.655M344.845 166.655C354.203 175.961 362.107 186.727 368.187 198.583M380.455 236.209L453.554 224.631M380.455 236.209C378.348 222.854 374.143 210.196 368.187 198.583M380.455 236.209C381.472 242.657 382 249.267 382 256C382 262.733 381.472 269.343 380.455 275.791M380.455 236.209L367.528 238.256M453.554 224.631C450.219 203.461 443.563 183.394 434.136 164.98M453.554 224.631C455.164 234.851 456 245.328 456 256C456 266.672 455.164 277.149 453.554 287.369M453.554 224.631L473.315 221.529M434.136 164.98L368.187 198.583M434.136 164.98L452.311 156.587M368.187 198.583L356.347 204.616M367.528 238.256C365.579 226.305 361.748 214.987 356.347 204.616M367.528 238.256C368.497 244.194 369 250.288 369 256.5C369 262.372 368.55 268.139 367.683 273.768M356.756 307.592C362.086 297.155 365.833 285.774 367.683 273.768M356.756 307.592C351.31 318.258 344.212 327.939 335.799 336.299M356.756 307.592L368.187 313.417M367.683 273.768L380.455 275.791M434.136 347.02C443.563 328.606 450.219 308.539 453.554 287.369M434.136 347.02L368.187 313.417M434.136 347.02C424.509 365.823 411.992 382.902 397.171 397.671M434.136 347.02L452.109 355.809M453.554 287.369L380.455 275.791M453.554 287.369L473.315 290.471M380.455 275.791C378.348 289.146 374.143 301.804 368.187 313.417M368.187 313.417C362.107 325.273 354.203 336.039 344.845 345.345M306.993 357.06C317.682 351.682 327.396 344.65 335.799 336.299M306.993 357.06C296.555 362.311 285.187 365.985 273.202 367.769M306.993 357.06L312.818 368.493M335.799 336.299L344.845 345.345M237.846 367.461C243.914 368.473 250.145 369 256.5 369C262.175 369 267.753 368.58 273.202 367.769M237.846 367.461L235.799 380.389M237.846 367.461C225.972 365.479 214.728 361.638 204.422 356.246M273.202 367.769L275.226 380.543M224.221 453.489C234.57 455.142 245.185 456 256 456C266.475 456 276.763 455.195 286.803 453.642M224.221 453.489L235.799 380.389M224.221 453.489C203.127 450.121 183.134 443.455 164.786 434.036M224.221 453.489L221.042 473.238M286.803 453.642L275.226 380.543M286.803 453.642C307.952 450.373 328.007 443.79 346.42 434.441M286.803 453.642L289.983 473.391M275.226 380.543C268.957 381.502 262.537 382 256 382C249.124 382 242.376 381.449 235.799 380.389M275.226 380.543C288.56 378.501 301.205 374.369 312.818 368.493M235.799 380.389C222.52 378.249 209.935 374.034 198.389 368.087M166.655 344.845L114.329 397.171M166.655 344.845C175.91 354.152 186.609 362.021 198.389 368.087M166.655 344.845C157.41 335.548 149.606 324.816 143.606 313.013M166.655 344.845L176.204 335.296M114.329 397.171C129.047 411.941 146.059 424.422 164.786 434.036M114.329 397.171C99.6207 382.411 87.204 365.366 77.6577 346.615M114.329 397.171L100.187 411.313M164.786 434.036L198.389 368.087M164.786 434.036L155.6 451.807M198.389 368.087L204.422 356.246M176.204 335.296C184.42 343.667 193.935 350.76 204.422 356.246M176.204 335.296C168.017 326.954 161.119 317.342 155.835 306.782M145.27 273.459C147.055 285.269 150.677 296.477 155.835 306.782M145.27 273.459C144.434 267.928 144 262.264 144 256.5C144 250.396 144.486 244.406 145.422 238.565M145.27 273.459L131.521 275.636M155.835 306.782L143.606 313.013M58.4215 287.214C61.724 308.287 68.3168 328.268 77.6577 346.615M58.4215 287.214L131.521 275.636M58.4215 287.214C56.8275 277.043 56 266.618 56 256C56 245.382 56.8275 234.957 58.4215 224.786M58.4215 287.214L38.6089 289.985M77.6577 346.615L143.606 313.013M77.6577 346.615L59.6871 355.408M143.606 313.013C137.737 301.466 133.596 288.894 131.521 275.636M131.521 275.636C130.52 269.238 130 262.68 130 256C130 249.32 130.52 242.762 131.521 236.364M143.606 198.987L77.6577 165.385M143.606 198.987C137.737 210.534 133.596 223.106 131.521 236.364M143.606 198.987C149.606 187.184 157.41 176.452 166.655 167.155M143.606 198.987L156.237 205.423M77.6577 165.385C68.3168 183.732 61.724 203.713 58.4215 224.786M77.6577 165.385C87.204 146.634 99.6207 129.589 114.329 114.829M77.6577 165.385L59.8864 156.2M58.4215 224.786L131.521 236.364M58.4215 224.786L38.6847 221.53M131.521 236.364L145.422 238.565M156.237 205.423C151.009 215.663 147.305 226.81 145.422 238.565M156.237 205.423C161.576 194.963 168.503 185.45 176.701 177.201M204.825 156.544C194.389 161.95 184.908 168.942 176.701 177.201M204.825 156.544L198.389 143.913M176.701 177.201L166.655 167.155M164.786 77.9638C146.059 87.5776 129.047 100.059 114.329 114.829M164.786 77.9638L198.389 143.913M164.786 77.9638L155.6 60.1934M114.329 114.829L166.655 167.155M114.329 114.829L100.187 100.687M166.655 167.155C175.91 157.848 186.609 149.979 198.389 143.913M346.42 434.441L312.818 368.493M346.42 434.441L355.406 452.314M346.42 434.441C365.248 424.882 382.36 412.43 397.171 397.671M312.818 368.493C324.698 362.48 335.497 354.641 344.845 345.345M344.845 345.345L397.171 397.671M397.171 397.671L411.313 411.813M38.6089 289.985C42.2074 313.191 49.4326 335.198 59.6871 355.408M38.6089 289.985C36.8913 278.908 36 267.558 36 256C36 244.273 36.9175 232.761 38.6847 221.53M38.6089 289.985L38.5 290M59.6871 355.408C70.2115 376.151 83.9267 395.001 100.187 411.313M59.6871 355.408L59.5 355.5M100.187 411.313C116.354 427.532 135.036 441.241 155.6 451.807M100.187 411.313L100 411.5M155.6 451.807C175.8 462.185 197.814 469.529 221.042 473.238M155.6 451.807L155.5 452M221.042 473.238C232.427 475.056 244.103 476 256 476C267.391 476 278.58 475.134 289.504 473.465C289.532 473.461 289.56 473.457 289.587 473.452M221.042 473.238L221 473.5M289.587 473.452C289.719 473.432 289.851 473.412 289.983 473.391M289.587 473.452C312.679 469.915 334.588 462.787 354.727 452.657M289.983 473.391C312.929 469.834 334.703 462.73 354.727 452.657M289.983 473.391L290 473.5M354.727 452.657C354.954 452.543 355.18 452.429 355.406 452.314M354.727 452.657C374.956 442.482 393.399 429.277 409.46 413.639M355.406 452.314C375.369 442.186 393.579 429.102 409.46 413.639M355.406 452.314L355.5 452.5M409.46 413.639C410.082 413.034 410.699 412.425 411.313 411.813M411.313 411.813C427.687 395.492 441.504 376.606 452.109 355.809M411.313 411.813L411.5 412M38.6847 221.53C42.3318 198.353 49.5979 176.377 59.8864 156.2M38.6847 221.53L38.5 221.5M59.8864 156.2C70.3844 135.612 84.0291 116.896 100.187 100.687M59.8864 156.2L59.5 156M100.187 100.687C116.354 84.468 135.036 70.7586 155.6 60.1934M100.187 100.687L100 100.5M155.6 60.1934C175.832 49.7987 197.884 42.4475 221.152 38.7445M155.6 60.1934C185.7 44.7283 219.831 36 256 36M155.6 60.1934L155.5 60M221.152 38.7445C232.502 36.9382 244.142 36 256 36M290 38.6113C278.918 36.8921 267.563 36 256 36M290 38.6113C313.2 42.2104 335.201 49.4344 355.406 59.6861M256 36C291.772 36 325.549 44.5375 355.406 59.6861M473.315 290.471C475.082 279.24 476 267.727 476 256C476 244.273 475.082 232.76 473.315 221.529M473.315 290.471C469.667 313.651 462.4 335.63 452.109 355.809M473.315 290.471L473.5 290.5M473.315 221.529C469.691 198.5 462.495 176.658 452.311 156.587M473.315 221.529L473.5 221.5M452.109 355.809L452.5 356M355.406 59.6861C376.15 70.2106 395.001 83.9261 411.313 100.187M355.406 59.6861C377.088 70.6868 396.703 85.1738 413.512 102.409M355.406 59.6861L355.5 59.5M411.313 100.187C412.051 100.922 412.784 101.663 413.512 102.409M411.313 100.187L411.5 100M452.311 156.587C442.155 136.573 429.029 118.32 413.512 102.409M452.311 156.587L452.5 156.5" stroke="white"/>
<circle cx="256" cy="256" r="13.5" fill="#64C357" stroke="white" id="SingleBull" data-score="25" data-multiplier="1"/>
<circle cx="256" cy="256" r="5.5" fill="#FF4141" stroke="white" id="DoubleBull" data-score="25" data-multiplier="2"/>
<path d="M252.5 27H240.938V25.1562L245.125 20.6875C246.125 19.6042 246.708 18.9688 246.875 18.7812C248.146 17.3438 248.781 16.1458 248.781 15.1875C248.781 14.7083 248.677 14.2708 248.469 13.875C247.99 13 247.198 12.5625 246.094 12.5625C244.865 12.625 243.865 13.2083 243.094 14.3125L240.719 12.875C240.885 12.5833 241.083 12.3021 241.312 12.0312C242.604 10.4896 244.292 9.71875 246.375 9.71875C247.583 9.71875 248.677 10.0104 249.656 10.5938C251.302 11.5729 252.125 13.0208 252.125 14.9375C252.125 15.5833 251.958 16.2604 251.625 16.9688C251.188 17.9479 250.156 19.3333 248.531 21.125C248.052 21.6458 247.708 22.0312 247.5 22.2812L245.812 24.2188H252.5V27ZM262.875 24.625C263.604 24.625 264.271 24.4375 264.875 24.0625C266.396 23.125 267.156 21.3021 267.156 18.5938C267.156 17.5729 267.042 16.6458 266.812 15.8125C266.208 13.5833 264.917 12.4792 262.938 12.5C262.312 12.5208 261.74 12.6354 261.219 12.8438C259.448 13.6354 258.562 15.5312 258.562 18.5312C258.562 19.7396 258.719 20.7917 259.031 21.6875C259.719 23.6458 261 24.625 262.875 24.625ZM263 9.71875C264.5 9.71875 265.812 10.0312 266.938 10.6562C269.333 12.0312 270.531 14.6458 270.531 18.5C270.531 20.6875 270.052 22.5521 269.094 24.0938C267.677 26.3021 265.583 27.4062 262.812 27.4062C261.125 27.4062 259.688 27 258.5 26.1875C256.312 24.7083 255.219 22.1771 255.219 18.5938C255.219 16.5104 255.646 14.7292 256.5 13.25C257.854 10.8958 260.021 9.71875 263 9.71875Z" fill="white"/>
<path d="M186.924 42.4966C185.22 43.0502 183.359 43.0855 181.34 42.6024L181.963 39.8697C183.298 40.2027 184.534 40.1956 185.669 39.8484C186.383 39.6167 186.975 39.2489 187.447 38.7452C188.47 37.6462 188.701 36.2347 188.141 34.5109C187.941 33.8967 187.623 33.3541 187.185 32.883C185.982 31.6748 184.33 31.4119 182.23 32.0943C181.338 32.384 180.495 32.7894 179.701 33.3104L176.446 23.2946L185.858 20.2037L186.717 22.8488L180.426 24.9257L181.933 29.5621C182.316 29.3938 182.657 29.2613 182.954 29.1647C184.743 28.6051 186.374 28.634 187.845 29.2512C189.605 30.0157 190.803 31.3787 191.441 33.3402C191.904 34.7668 191.986 36.1641 191.686 37.5322C191.146 39.9855 189.559 41.6403 186.924 42.4966Z" fill="white"/>
<path d="M102.436 70.4306L100.017 69.0039L102.533 64.1935L104.902 62.3015L113.854 73.5084L115.93 71.8505L117.51 73.8281L110.258 79.621L108.678 77.6434L111.266 75.5759L104.381 66.9571L102.436 70.4306ZM128.204 65.2851L119.17 72.5018L118.019 71.0613L118.502 64.9562C118.607 63.4856 118.666 62.6251 118.679 62.3746C118.775 60.4583 118.524 59.1257 117.925 58.377C117.626 58.0026 117.272 57.7258 116.862 57.5466C115.942 57.162 115.05 57.3143 114.187 58.0035C113.266 58.8195 112.849 59.8994 112.936 61.2432L110.183 61.6024C110.131 61.2705 110.11 60.9273 110.12 60.5726C110.167 58.5619 111.004 56.9064 112.632 55.6061C113.576 54.8519 114.613 54.3971 115.742 54.2417C117.639 53.9795 119.186 54.5972 120.382 56.0947C120.785 56.5992 121.077 57.2323 121.259 57.9938C121.528 59.0318 121.587 60.7579 121.436 63.172C121.387 63.878 121.359 64.3937 121.352 64.7191L121.243 67.2861L126.468 63.1121L128.204 65.2851Z" fill="white"/>
<path d="M59.8777 119.537C58.5631 118.582 57.606 117.436 57.0064 116.099C56.0266 113.868 56.2776 111.733 57.7593 109.693C58.2491 109.019 58.7972 108.478 59.4035 108.068C62.0556 106.261 65.5895 106.962 70.0054 110.17C72.1965 111.762 73.8454 113.462 74.9522 115.271C76.7135 118.198 76.7247 120.859 74.9859 123.252C74.7899 123.522 74.5687 123.773 74.3222 124.006C72.9597 125.385 71.2904 126.052 69.3145 126.007L69.2007 123.453C69.2758 123.456 69.357 123.45 69.4443 123.436C70.8549 123.302 71.9398 122.713 72.699 121.668C74.2619 119.482 73.1601 116.904 69.3938 113.936C69.4152 113.977 69.4306 114.027 69.4398 114.085C69.9706 115.836 69.7339 117.402 68.7298 118.784C67.9951 119.795 66.999 120.475 65.7417 120.824C63.7538 121.362 61.7991 120.933 59.8777 119.537ZM59.991 111.354C59.7461 111.691 59.5663 112.062 59.4516 112.468C59.1031 113.94 59.8052 115.313 61.5581 116.587C62.2491 117.089 62.9378 117.434 63.6241 117.624C65.0763 118.035 66.2127 117.676 67.0331 116.547C67.2903 116.193 67.4739 115.799 67.584 115.364C67.9034 113.896 67.1867 112.526 65.4338 111.252C64.7091 110.726 63.9974 110.376 63.2989 110.203C61.8896 109.875 60.7869 110.258 59.991 111.354Z" fill="white"/>
<path d="M23.5519 192.282L20.7517 192.504L20.0483 187.121L20.9 184.212L34.666 188.242L35.4123 185.693L37.8416 186.404L35.2338 195.311L32.8045 194.6L33.7353 191.421L23.1484 188.322L23.5519 192.282ZM45.7713 174.333L44.8405 177.512L40.2819 176.178L37.9463 184.155L35.5441 183.908L24.6668 171.346L25.5272 168.407L38.5434 172.217L39.2897 169.668L41.9589 170.449L41.2126 172.999L45.7713 174.333ZM37.6127 175.396L29.2751 172.955L36.0322 180.795L37.6127 175.396Z" fill="white"/>
<path d="M14.8209 265.423L12.2012 266.437L9.98737 261.48L9.97129 258.448L24.3148 258.372L24.3008 255.716L26.832 255.703L26.8812 264.984L24.35 264.997L24.3324 261.685L13.3013 261.743L14.8209 265.423ZM14.7532 252.673L12.1336 253.687L9.91974 248.73L9.90366 245.699L24.2472 245.622L24.2331 242.966L26.7643 242.953L26.8136 252.234L24.2823 252.247L24.2648 248.935L13.2337 248.993L14.7532 252.673Z" fill="white"/>
<path d="M26.9755 335.762C25.7501 336.17 24.5215 336.174 23.2895 335.772C21.2405 335.093 19.7911 333.479 18.9411 330.93C18.3679 329.21 18.292 327.633 18.7136 326.196C19.2735 324.319 20.512 323.06 22.4291 322.421C22.9034 322.263 23.3843 322.158 23.8718 322.105C25.7956 321.947 27.4624 322.599 28.8723 324.061C28.9052 323.897 28.9447 323.719 28.9908 323.528C29.531 321.722 30.6707 320.53 32.4099 319.95C33.5562 319.568 34.6926 319.551 35.8192 319.901C37.7166 320.52 39.0442 321.966 39.8019 324.239C40.2763 325.662 40.339 327.002 39.9899 328.261C39.4959 330.006 38.3397 331.183 36.5214 331.789C36.2052 331.894 35.889 331.967 35.5728 332.006C33.794 332.27 32.2655 331.736 30.9874 330.405C30.9742 330.959 30.8886 331.493 30.7305 332.006C30.1838 333.858 28.9321 335.109 26.9755 335.762ZM23.8522 325.405C23.2989 325.59 22.8212 325.87 22.4194 326.246C21.3456 327.24 21.0788 328.548 21.6191 330.169C21.8563 330.88 22.2121 331.453 22.6865 331.888C23.6352 332.758 24.7815 332.969 26.1255 332.52C26.7579 332.31 27.3113 331.993 27.7856 331.572C28.8528 330.557 29.1328 329.289 28.6254 327.767C28.3882 327.056 28.016 326.466 27.5087 325.998C26.5138 325.122 25.295 324.924 23.8522 325.405ZM33.2006 323.112C32.6867 323.284 32.2355 323.544 31.8468 323.893C30.8784 324.743 30.605 325.8 31.0267 327.065C31.1981 327.579 31.4649 328.017 31.8273 328.38C32.6903 329.19 33.8037 329.368 35.1674 328.913C35.5429 328.788 35.8723 328.623 36.1556 328.419C37.3019 327.641 37.6346 326.531 37.1536 325.089C36.9954 324.614 36.7681 324.196 36.4716 323.834C35.6547 322.898 34.5643 322.658 33.2006 323.112Z" fill="white"/>
<path d="M53.0349 378.149L54.6019 375.818L59.2555 378.614L61.0045 381.09L49.2895 389.366L50.8221 391.536L48.7548 392.996L43.3994 385.416L45.4668 383.955L47.3781 386.661L56.3878 380.296L53.0349 378.149ZM63.6861 401.999C62.3589 402.937 60.9479 403.449 59.4532 403.536C57.0644 403.693 55.1608 402.768 53.7423 400.76C53.1052 399.858 52.7238 398.903 52.5983 397.895C52.2668 395.043 54.1003 392.204 58.0989 389.379C60.3279 387.804 62.5056 386.789 64.6319 386.332C67.9656 385.635 70.4859 386.495 72.1929 388.911C72.3251 389.098 72.4549 389.3 72.5821 389.516C73.5179 391.202 73.6818 392.986 73.0738 394.87L70.4514 394.082C70.8073 392.708 70.6331 391.505 69.9289 390.472C68.3702 388.41 65.572 388.602 61.5341 391.046C63.3793 391.095 64.8093 391.819 65.8241 393.219C66.5454 394.24 66.8722 395.425 66.8047 396.773C66.6994 398.863 65.6598 400.605 63.6861 401.999ZM57.7118 393.976C56.9291 394.529 56.3421 395.161 55.951 395.871C55.2957 397.073 55.3286 398.185 56.0499 399.206C56.3384 399.614 56.7025 399.931 57.1421 400.156C58.4369 400.798 59.884 400.553 61.4834 399.423C62.2321 398.894 62.8116 398.306 63.2218 397.659C63.9862 396.431 63.9837 395.272 63.2144 394.183C62.9379 393.791 62.5884 393.477 62.1658 393.24C60.881 392.541 59.3963 392.786 57.7118 393.976Z" fill="white"/>
<path d="M122.508 447.092C116.292 451.45 111.093 455.691 106.914 459.814L103.973 457.973C107.634 454.389 112.562 450.375 118.758 445.932L111.392 441.505L113.018 438.799L123.651 445.191L122.508 447.092Z" fill="white"/>
<path d="M167.13 468.64L167.099 465.831L172.518 465.496L175.362 466.544L170.403 480.003L172.895 480.922L172.02 483.297L163.311 480.088L164.186 477.713L167.294 478.858L171.109 468.507L167.13 468.64ZM177.63 474.94C178.192 473.415 179.035 472.183 180.159 471.242C182.039 469.693 184.163 469.354 186.528 470.226C187.31 470.514 187.98 470.894 188.539 471.366C190.999 473.427 191.285 477.019 189.398 482.14C188.461 484.682 187.273 486.731 185.834 488.287C183.495 490.778 180.938 491.512 178.162 490.489C177.849 490.374 177.547 490.229 177.256 490.055C175.558 489.119 174.463 487.694 173.969 485.78L176.397 484.976C176.414 485.049 176.441 485.126 176.478 485.206C176.991 486.527 177.853 487.411 179.065 487.858C181.594 488.768 183.775 487.007 185.607 482.575C185.573 482.607 185.53 482.636 185.476 482.66C183.936 483.647 182.364 483.845 180.761 483.254C179.588 482.822 178.663 482.048 177.986 480.933C176.928 479.166 176.809 477.169 177.63 474.94ZM185.537 472.825C185.146 472.681 184.74 472.609 184.318 472.609C182.806 472.673 181.676 473.722 180.927 475.755C180.631 476.557 180.486 477.313 180.49 478.025C180.489 479.535 181.143 480.531 182.453 481.013C182.863 481.165 183.293 481.234 183.742 481.222C185.241 481.13 186.365 480.068 187.114 478.035C187.424 477.195 187.567 476.415 187.543 475.695C187.476 474.25 186.808 473.293 185.537 472.825Z" fill="white"/>
<path d="M255.752 504.848C257.898 504.848 259.856 504.139 261.627 502.723L259.846 500.441C258.637 501.421 257.314 501.921 255.877 501.941C255.314 501.941 254.783 501.837 254.283 501.629C252.95 501.087 252.283 500.004 252.283 498.379C252.283 497.816 252.398 497.275 252.627 496.754C253.273 495.421 254.471 494.754 256.221 494.754L257.939 494.754L257.939 492.16L256.752 492.16C256.023 492.16 255.377 492.035 254.814 491.785C253.585 491.223 252.971 490.212 252.971 488.754C252.971 488.15 253.096 487.608 253.346 487.129C253.866 486.191 254.658 485.723 255.721 485.723C256.929 485.744 257.908 486.358 258.658 487.566L261.033 486.129C260.846 485.796 260.627 485.483 260.377 485.191C259.148 483.691 257.523 482.941 255.502 482.941C254.294 482.941 253.2 483.223 252.221 483.785C250.512 484.764 249.658 486.254 249.658 488.254C249.658 488.796 249.731 489.316 249.877 489.816C250.377 491.421 251.408 492.525 252.971 493.129C252.304 493.316 251.689 493.598 251.127 493.973C249.648 495.014 248.908 496.462 248.908 498.316C248.908 500.025 249.419 501.462 250.439 502.629C251.731 504.108 253.502 504.848 255.752 504.848Z" fill="white"/>
<path d="M315.585 483.788L313.907 481.535L318.091 478.075L321.007 477.248L324.92 491.048L327.476 490.323L328.166 492.758L319.237 495.29L318.547 492.855L321.733 491.951L318.724 481.339L315.585 483.788ZM337.658 474.8C336.584 482.315 336.122 489.008 336.271 494.877L332.917 495.764C332.806 490.641 333.25 484.3 334.246 476.742L325.978 479.086L325.117 476.05L337.053 472.665L337.658 474.8Z" fill="white"/>
<path d="M407.654 452.624L398.229 459.322L397.161 457.819L397.986 451.75C398.173 450.288 398.281 449.432 398.308 449.183C398.511 447.275 398.336 445.93 397.78 445.149C397.503 444.759 397.165 444.462 396.766 444.26C395.868 443.825 394.969 443.926 394.069 444.566C393.103 445.329 392.626 446.384 392.637 447.73L389.869 447.934C389.836 447.6 389.834 447.256 389.864 446.902C390.024 444.897 390.953 443.292 392.651 442.085C393.636 441.385 394.697 440.989 395.833 440.898C397.742 440.743 399.251 441.446 400.361 443.009C400.735 443.535 400.992 444.184 401.13 444.954C401.341 446.006 401.303 447.732 401.016 450.134C400.927 450.836 400.87 451.349 400.845 451.674L400.592 454.231L406.043 450.357L407.654 452.624Z" fill="white"/>
<path d="M437.38 404.506L434.642 403.875L435.591 398.53L437.278 396.012L449.194 403.996L450.673 401.79L452.776 403.199L447.609 410.909L445.506 409.5L447.35 406.748L438.186 400.608L437.38 404.506ZM460.793 399.543C459.795 401.031 458.354 402.21 456.468 403.078L455.269 400.544C456.525 399.981 457.491 399.212 458.17 398.237C458.587 397.614 458.826 396.958 458.885 396.271C459.01 394.775 458.319 393.522 456.814 392.513C456.277 392.154 455.691 391.924 455.056 391.824C453.363 391.618 451.903 392.432 450.673 394.267C450.151 395.045 449.739 395.885 449.437 396.786L440.688 390.924L446.176 382.677L448.487 384.225L444.825 389.746L448.875 392.46C449.072 392.09 449.258 391.776 449.432 391.516C450.493 389.97 451.792 388.985 453.33 388.561C455.186 388.074 456.971 388.405 458.684 389.553C459.93 390.388 460.858 391.436 461.468 392.697C462.56 394.959 462.335 397.241 460.793 399.543Z" fill="white"/>
<path d="M476.108 342.982L473.301 343.082L472.832 337.673L473.809 334.804L487.387 339.429L488.244 336.914L490.64 337.73L487.647 346.516L485.251 345.7L486.319 342.564L475.877 339.008L476.108 342.982ZM491.666 327.351C491.901 326.66 491.939 325.969 491.778 325.276C491.381 323.534 489.901 322.227 487.337 321.353C486.371 321.024 485.456 320.834 484.594 320.782C482.289 320.635 480.827 321.502 480.209 323.382C480.027 323.981 479.951 324.56 479.98 325.12C480.158 327.052 481.667 328.501 484.507 329.468C485.651 329.858 486.697 330.049 487.646 330.042C489.722 330.023 491.061 329.125 491.666 327.351ZM477.596 322.426C478.08 321.006 478.799 319.865 479.753 319.001C481.827 317.177 484.688 316.886 488.337 318.128C490.407 318.834 492.018 319.888 493.168 321.293C494.802 323.346 495.172 325.684 494.279 328.306C493.735 329.904 492.887 331.134 491.735 331.996C489.629 333.59 486.88 333.809 483.488 332.653C481.516 331.982 479.968 331.003 478.843 329.718C477.051 327.677 476.636 325.246 477.596 322.426Z" fill="white"/>
<path d="M492.05 264.954C490.425 264.954 488.977 264.559 487.706 263.767C485.664 262.517 484.643 260.663 484.643 258.204C484.643 257.1 484.883 256.1 485.362 255.204C486.737 252.684 489.873 251.423 494.768 251.423C497.498 251.423 499.862 251.85 501.862 252.704C504.987 254.059 506.55 256.215 506.55 259.173C506.55 259.402 506.539 259.642 506.518 259.892C506.31 261.809 505.414 263.361 503.831 264.548L502.143 262.392C503.227 261.475 503.779 260.392 503.8 259.142C503.716 256.559 501.321 255.1 496.612 254.767C498.091 255.871 498.841 257.288 498.862 259.017C498.862 260.267 498.446 261.423 497.612 262.486C496.321 264.131 494.466 264.954 492.05 264.954ZM491.8 254.954C490.841 254.954 489.998 255.131 489.268 255.486C488.039 256.09 487.425 257.017 487.425 258.267C487.425 258.767 487.539 259.236 487.768 259.673C488.456 260.944 489.779 261.579 491.737 261.579C492.654 261.579 493.466 261.434 494.175 261.142C495.508 260.579 496.175 259.631 496.175 258.298C496.175 257.819 496.071 257.361 495.862 256.923C495.216 255.611 493.862 254.954 491.8 254.954Z" fill="white"/>
<path d="M483.062 173.75L485.25 171.988L488.866 176.037L489.802 178.92L476.161 183.353L476.982 185.879L474.574 186.661L471.706 177.834L474.113 177.052L475.137 180.202L485.628 176.793L483.062 173.75ZM472.435 195.045C471.772 193.004 471.841 190.923 472.641 188.801L475.361 189.79C474.803 191.242 474.736 192.654 475.161 194.028C475.334 194.563 475.598 195.036 475.95 195.447C476.877 196.548 478.114 196.847 479.659 196.345C480.194 196.171 480.674 195.895 481.098 195.516C482.167 194.49 482.431 193.144 481.89 191.48L481.359 189.845L483.826 189.044L484.193 190.173C484.418 190.867 484.736 191.442 485.148 191.9C486.063 192.895 487.214 193.167 488.601 192.717C489.175 192.53 489.652 192.244 490.03 191.858C490.761 191.073 490.962 190.175 490.634 189.165C490.241 188.022 489.354 187.281 487.973 186.941L488.606 184.238C488.981 184.313 489.346 184.425 489.7 184.572C491.507 185.278 492.722 186.591 493.347 188.513C493.72 189.662 493.79 190.79 493.558 191.895C493.155 193.822 492.002 195.095 490.1 195.713C489.585 195.88 489.067 195.972 488.546 195.987C486.866 196.008 485.497 195.368 484.44 194.069C484.468 194.761 484.39 195.432 484.207 196.083C483.674 197.812 482.525 198.962 480.762 199.535C479.137 200.063 477.612 200.022 476.187 199.412C474.381 198.64 473.13 197.185 472.435 195.045Z" fill="white"/>
<path d="M441.811 129.333L439.864 126.653L443.706 123.861L438.82 117.136L440.485 115.386L457.076 114.456L458.876 116.934L447.904 124.906L449.465 127.055L447.215 128.69L445.653 126.541L441.811 129.333ZM445.957 122.226L452.985 117.12L442.65 117.675L445.957 122.226Z" fill="white"/>
<path d="M387.435 52.6278L388.169 49.9164L393.474 51.0672L395.927 52.8489L387.496 64.4533L389.645 66.0146L388.157 68.0624L380.648 62.607L382.136 60.5592L384.816 62.5062L391.3 53.5818L387.435 52.6278ZM404.621 72.9943C403.862 74.0392 402.864 74.7565 401.628 75.1462C399.567 75.7859 397.449 75.3159 395.275 73.7362C393.809 72.6709 392.829 71.4314 392.337 70.0179C391.7 68.1649 391.976 66.4209 393.164 64.786C393.458 64.3815 393.788 64.016 394.154 63.6896C395.626 62.4421 397.362 62.0032 399.359 62.3729C399.29 62.2198 399.219 62.0521 399.145 61.8699C398.535 60.0873 398.768 58.4544 399.846 56.9712C400.556 55.9936 401.471 55.3192 402.591 54.948C404.494 54.3482 406.415 54.7524 408.353 56.1607C409.567 57.0423 410.398 58.0965 410.845 59.3232C411.459 61.0307 411.202 62.6598 410.076 64.2104C409.88 64.4801 409.665 64.723 409.431 64.9391C408.137 66.188 406.583 66.6429 404.769 66.3037C405.081 66.7616 405.321 67.2455 405.492 67.7554C406.124 69.5794 405.833 71.3257 404.621 72.9943ZM396.057 66.386C395.714 66.8579 395.489 67.3635 395.38 67.9027C395.085 69.3365 395.629 70.5555 397.011 71.5596C397.618 72.0005 398.24 72.2598 398.879 72.3376C400.157 72.4932 401.212 71.998 402.044 70.8519C402.436 70.3125 402.703 69.7334 402.843 69.1145C403.121 67.6685 402.611 66.474 401.314 65.5311C400.707 65.0903 400.061 64.8271 399.376 64.7417C398.058 64.6075 396.951 65.1556 396.057 66.386ZM402.328 59.0837C402.01 59.5219 401.794 59.9961 401.681 60.5062C401.388 61.7608 401.78 62.78 402.859 63.5637C403.297 63.8821 403.769 64.0832 404.274 64.1673C405.448 64.3245 406.457 63.8216 407.302 62.6586C407.535 62.3384 407.707 62.0128 407.818 61.6819C408.299 60.3828 407.924 59.2863 406.693 58.3924C406.289 58.0985 405.861 57.8904 405.409 57.768C404.2 57.4822 403.173 57.9208 402.328 59.0837Z" fill="white"/>
<path d="M326.631 25.4956L326.491 22.6901L331.892 22.1451L334.775 23.0818L330.343 36.7235L332.869 37.5443L332.087 39.9517L323.26 37.0836L324.042 34.6763L327.192 35.6999L330.601 25.2085L326.631 25.4956Z" fill="white"/>
</svg>
